<?xml version="1.0" standalone="no"?>
<!DOCTYPE svg PUBLIC "-//W3C//DTD SVG 20010904//EN"
 "http://www.w3.org/TR/2001/REC-SVG-20010904/DTD/svg10.dtd">
<svg version="1.0" xmlns="http://www.w3.org/2000/svg"
 width="833.000000pt" height="833.000000pt" viewBox="0 0 833.000000 833.000000"
 preserveAspectRatio="xMidYMid meet">
<metadata>
Created by potrace 1.11, written by Peter Selinger 2001-2013
</metadata>
<g transform="translate(0.000000,833.000000) scale(0.100000,-0.100000)"
fill="#000000" stroke="none">
<path d="M393 8315 c-190 -51 -344 -212 -382 -397 -8 -38 -11 -1115 -9 -3783
l3 -3730 22 -60 c62 -162 189 -281 352 -329 50 -15 399 -16 3785 -16 3085 0
3740 3 3781 14 179 48 323 192 371 371 11 41 14 696 14 3781 0 3386 -1 3735
-16 3785 -48 163 -167 290 -329 352 l-60 22 -3740 2 c-3192 1 -3748 0 -3792
-12z m5822 -2110 c171 -36 277 -137 320 -302 20 -76 20 -296 0 -381 -39 -163
-128 -261 -288 -315 -60 -21 -84 -22 -772 -27 -508 -3 -717 -8 -736 -17 -39
-17 -79 -70 -80 -106 -3 -93 16 -131 79 -160 46 -21 60 -22 607 -28 516 -5
567 -7 650 -26 217 -50 356 -119 489 -243 148 -139 245 -338 292 -595 25 -140
26 -509 1 -645 -78 -423 -289 -685 -645 -800 -198 -64 -178 -63 -1072 -67
-848 -4 -886 -3 -996 38 -111 42 -207 163 -235 297 -18 90 -7 332 20 407 61
169 175 258 365 284 50 7 344 11 820 11 l742 0 44 23 c58 29 83 74 77 140 -5
58 -30 95 -83 122 -37 19 -65 20 -599 26 -527 6 -566 7 -658 28 -400 89 -651
329 -746 713 -38 155 -46 228 -46 448 0 225 8 294 51 459 108 418 418 667 894
720 41 5 381 9 755 10 565 0 692 -2 750 -14z m-2861 -24 c153 -54 261 -170
302 -326 22 -80 20 -1658 -2 -1827 -70 -541 -331 -991 -731 -1258 -126 -85
-203 -125 -338 -175 -208 -78 -395 -105 -712 -105 -235 0 -298 10 -397 63
-289 154 -346 589 -107 828 114 113 192 137 491 149 228 8 279 16 389 60 223
87 365 310 400 623 7 60 11 376 11 829 0 806 0 804 61 919 61 114 194 211 325
238 77 16 239 6 308 -18z"/>
</g>
</svg>
